<svg xmlns="http://www.w3.org/2000/svg" viewBox="0 0 58 59">
  <path fill="#000" fill-rule="evenodd" d="M29.0625.0625c7.9167 0 14.7135 2.8385 20.3906 8.5156 5.6771 5.6771 8.5157 12.526 8.5157 20.5469 0 8.0209-2.8386 14.8698-8.5157 20.5469-5.677 5.677-12.4739 8.5156-20.3906 8.5156-7.9167 0-14.7395-2.8646-20.4688-8.5938C2.8647 43.8646 0 37.0418 0 29.125c0-7.9167 2.8646-14.7395 8.5938-20.4688C14.323 2.927 21.1457.0625 29.0624.0625zM48.125 13.5c-.3125.5208-.8594 1.224-1.6406 2.1094-.7813.8854-2.2917 2.1093-4.5313 3.6718-2.2396 1.5626-4.7656 2.9167-7.5781 4.0626.7292 1.4583 1.25 2.6041 1.5625 3.4374 0 .2084.1042.4688.3125.7813.2083.3125.3125.5208.3125.625 5.3125-.7292 11.0416-.4688 17.1875.7813 0-5.7293-1.875-10.8854-5.625-15.4688zM29.0625 4.4375c-2.2917 0-4.2708.2083-5.9375.625l1.0938 1.5625a324.5222 324.5222 0 0 1 2.2656 3.2813c.7812 1.1458 1.7448 2.6041 2.8906 4.375 1.1458 1.7708 2.1875 3.5416 3.125 5.3125 5.8334-2.1876 10.1562-5.1563 12.9688-8.9063-4.6876-4.1667-10.1563-6.25-16.4063-6.25zm-10.625 2.3438c-7.5 3.6458-12.0833 9.427-13.75 17.3437 7.6042 0 15.2604-1.0417 22.9688-3.125-.8334-1.5625-3.9063-6.302-9.2188-14.2188zM4.2187 29.125c0 6.25 2.1354 11.7708 6.4063 16.5625 5.5209-8.3334 12.2395-13.75 20.1563-16.25.1041 0 .2604-.052.4687-.1563.2083-.1041.3646-.1562.4688-.1562-.8334-1.875-1.5105-3.2813-2.0313-4.2188-7.5 2.2917-15.9895 3.4376-25.4688 3.4376v.7812zm24.8438 24.8438c3.125 0 6.302-.6771 9.5313-2.0313-.8334-5.5209-2.5521-11.7708-5.1563-18.75h-.1563c-4.1666 1.4583-7.8645 3.4896-11.0937 6.0938-3.2292 2.6041-5.3125 4.5833-6.25 5.9374-.9375 1.3542-1.6667 2.5-2.1875 3.4376 4.5834 3.5416 9.6875 5.3124 15.3125 5.3124zm13.75-4.2188c5.9375-3.9584 9.4792-9.5312 10.625-16.7188-.5208-.2083-1.4062-.4427-2.6563-.703-1.25-.2605-3.0989-.4688-5.5468-.625-2.448-.1563-4.8698-.0261-7.2657.3906 1.875 5.2083 3.4896 11.0937 4.8438 17.6562z"/>
</svg>