<svg xmlns="http://www.w3.org/2000/svg" viewBox="0 0 62 49">
  <path fill="#000" fill-rule="evenodd" d="M59.5313.9063c1.3541 0 2.0312.677 2.0312 2.0312v3.75c0 .1042-.1042.2604-.3125.4688 0 .1041-.1042.2083-.3125.3125-.2083.1041-.3646.1562-.4688.1562l-29.375 17.1875c-.1041 0-.1562.026-.1562.0781 0 .0521-.052.0782-.1563.0782-.1041 0-.1562-.0521-.1562-.1563L.3125 7.625C.1042 7.4167 0 7.2604 0 7.1562V2.9375C0 1.5833.677.9062 2.0313.9062h57.5zm1.875 12.5c.1041.1041.1562.2083.1562.3125V41.375c0 .3125-.1042.4688-.3125.4688L61.0937 42c-.1041 0-.2083-.052-.3124-.1563L44.0624 23.875v-.4688c0-.2083.052-.3124.1563-.3124l16.5624-9.6876c.2084-.2083.4167-.2083.625 0zM39.5313 26.375L59.375 47.7813c.2083.2083.2083.4166 0 .625-.2083.2083-.3646.3124-.4688.3124H2.0313c-.2083 0-.5208-.1041-.9375-.3124-.2083-.2084-.3124-.3646-.3124-.4688 0-.2083.052-.3646.1562-.4688L23.125 27c.2083-.2083.4167-.2604.625-.1563l5.9375 3.4376c.7292.4166 1.5625.3645 2.5-.1563l6.5625-3.9063c.2083-.2083.4688-.1562.7813.1563zm-21.25-1.875l-17.5 16.0938c-.1042.1041-.2084.1562-.3125.1562H.3125C.1042 40.5417 0 40.3854 0 40.2812V14.1876c0-.1042.1042-.2604.3125-.4688.2083-.1041.3646-.1041.4688 0l17.3437 10 .3125.3126c0 .2083-.052.3645-.1563.4687z"/>
</svg>