<svg xmlns="http://www.w3.org/2000/svg" viewBox="0 0 60 57">
  <path fill="#000" fill-rule="evenodd" d="M47.1875 23.4688c.1042 0 .3906-.1042.8594-.3126.4687-.2083.8073-.3124 1.0156-.3124 1.4583 0 2.5.1562 3.125.4687.8333.4167 1.276.9635 1.3281 1.6406.0521.6771-.2864 1.276-1.0156 1.7969-.625.4167-1.875.9896-3.75 1.7188-1.4583.5208-2.3177 1.0937-2.5781 1.7187-.2604.625-.026 1.6146.7031 2.9688 2.6042 5 6.25 8.0729 10.9375 9.2187.9375.3125 1.4063.625 1.4063.9375 0 .9375-.3126 1.6146-.9376 2.0313-1.6666.7291-3.4895 1.3541-5.4687 1.875-1.0417.3125-1.6667.8854-1.875 1.7187-.2083 1.1458-.4948 1.849-.8594 2.1094-.3646.2604-1.1198.2864-2.2656.0781-3.5417-.7292-6.8229 0-9.8438 2.1875-3.0208 2.1875-5.8333 3.2552-8.4374 3.2031-2.6042-.052-5.4167-1.1718-8.4376-3.3593-2.9166-2.0834-6.0937-2.7605-9.5312-2.0313-1.1458.2083-1.901.1823-2.2656-.0781-.3646-.2604-.7031-.9636-1.0157-2.1094-.2083-1.0417-.7812-1.6146-1.7187-1.7188-1.9792-.3125-3.75-.8854-5.3125-1.7187-.625-.3125-1.0417-.9896-1.25-2.0313 0-.5208.573-.9374 1.7188-1.25 4.8958-1.3541 8.6458-4.7916 11.25-10.3124.4166-1.0417.1041-1.9271-.9375-2.6563l-1.4063-.4688c-.625-.2083-1.0937-.4166-1.4063-.625-.8333-.4166-1.4062-.7291-1.7187-.9374-1.4583-.8334-1.927-1.823-1.4063-2.9688.625-1.5625 1.823-2.0313 3.5938-1.4063 1.0417.4167 1.823.6771 2.3438.7813 1.0416.1042 1.5625-.3646 1.5625-1.4063a113.9417 113.9417 0 0 1 0-8.4374c.4166-5.9376 3.5416-10 9.375-12.1875C26.8228.0312 30.8072-.125 34.9218 1.125c4.1147 1.25 7.2136 3.6979 9.297 7.3438.9374 1.7708 1.5104 4.5833 1.7187 8.4375 0 .625-.052 1.5364-.1563 2.7343-.1041 1.198-.1562 2.1094-.1562 2.7344-.1042.625 0 1.0156.3125 1.1719.3125.1562.7292.1302 1.25-.0782z"/>
</svg>