<?xml version="1.0" encoding="UTF-8"?>
<svg width="600px" height="600px" viewBox="0 0 600 600" version="1.1" xmlns="http://www.w3.org/2000/svg" xmlns:xlink="http://www.w3.org/1999/xlink">
    <!-- Generator: Sketch 43.2 (39069) - http://www.bohemiancoding.com/sketch -->
    <title>favicon</title>
    <desc>Created with Sketch.</desc>
    <defs></defs>
    <g id="Website" stroke="none" stroke-width="1" fill="none" fill-rule="evenodd">
        <g id="favicon">
            <circle id="Oval" fill="#BF1313" cx="300" cy="300" r="290"></circle>
            <g id="Group" transform="translate(157.000000, 160.000000)" fill="#EFF1F3">
                <path d="M120.94341,277.333333 L120.94341,162.199684 C120.94341,155.574154 120.071081,149.886283 118.326396,145.135903 C116.581712,140.385522 114.151652,136.479018 111.036145,133.416272 C107.920637,130.353527 104.306702,128.10338 100.194231,126.665765 C96.0817611,125.22815 91.5954971,124.509353 86.7353049,124.509353 C81.625872,124.509353 76.8280619,125.165646 72.3417306,126.478251 C67.8553993,127.790856 63.9299182,129.915995 60.5651698,132.85373 C57.2004213,135.791465 54.5522793,139.604214 52.6206645,144.292089 C50.6890496,148.979965 49.7232567,154.699087 49.7232567,161.449628 L49.7232567,277.333333 L0,277.333333 L0,23.0642326 L49.7232567,0 L49.7232567,99.5699797 C55.7050317,92.1943888 63.0886746,86.5065184 71.8744067,82.5061979 C80.6601389,78.5058774 90.7230783,76.5057471 102.063527,76.5057471 C110.413088,76.5057471 118.700214,77.7558285 126.925155,80.2560288 C135.150096,82.7562292 142.502584,87.0065059 148.98284,93.0069867 C155.463097,99.0074675 160.697071,106.945484 164.684922,116.821276 C168.672772,126.697067 170.666667,139.010369 170.666667,153.761551 L170.666667,277.333333 L120.94341,277.333333 Z M226.666667,277.333333 L226.666667,80 L277.333333,80 L277.333333,277.333333 L226.666667,277.333333 Z M252.76313,58.6666667 C248.647353,58.6666667 244.756717,57.8781441 241.091104,56.3010753 C237.425491,54.7240065 234.242243,52.6107659 231.541265,49.9612903 C228.840287,47.3118147 226.685967,44.1892653 225.078242,40.5935484 C223.470517,36.9978315 222.666667,33.1813822 222.666667,29.144086 C222.666667,25.1067898 223.470517,21.3218815 225.078242,17.7892473 C226.685967,14.2566132 228.840287,11.1656046 231.541265,8.51612903 C234.242243,5.86665342 237.425491,3.78495381 241.091104,2.27096774 C244.756717,0.756981677 248.647353,0 252.76313,0 C256.878906,0 260.769542,0.756981677 264.435155,2.27096774 C268.100769,3.78495381 271.284017,5.86665342 273.984995,8.51612903 C276.685973,11.1656046 278.808138,14.2566132 280.351554,17.7892473 C281.89497,21.3218815 282.666667,25.1067898 282.666667,29.144086 C282.666667,33.1813822 281.89497,36.9978315 280.351554,40.5935484 C278.808138,44.1892653 276.685973,47.3118147 273.984995,49.9612903 C271.284017,52.6107659 268.100769,54.7240065 264.435155,56.3010753 C260.769542,57.8781441 256.878906,58.6666667 252.76313,58.6666667 Z" id="hi."></path>
            </g>
        </g>
    </g>
</svg>